<?xml version="1.0" encoding="UTF-8" standalone="no"?>
<svg width="27px" height="26px" viewBox="0 0 27 26" version="1.1" xmlns="http://www.w3.org/2000/svg" xmlns:xlink="http://www.w3.org/1999/xlink">
    <!-- Generator: Sketch 3.8.3 (29802) - http://www.bohemiancoding.com/sketch -->
    <title>Finished</title>
    <desc>Created with Sketch.</desc>
    <defs>
        <path d="M294.352192,19.2523847 C294.07441,18.9729938 293.73714,18.8331672 293.340175,18.8331672 L289.05311,18.8331672 L289.05311,17.395723 C289.05311,16.7368703 288.820269,16.1730011 288.353701,15.7036958 C287.887342,15.2345478 287.326408,15 286.671576,15 L278.097707,15 C277.442771,15 276.881993,15.2344953 276.415581,15.7036958 C275.949118,16.1729487 275.716016,16.7368179 275.716016,17.395723 L275.716016,18.8332197 L271.428952,18.8332197 C271.03209,18.8332197 270.694716,18.9728889 270.416778,19.2524371 C270.138839,19.5319853 270,19.8714293 270,20.2707689 L270,22.1874312 C270,22.8961095 270.205886,23.6099277 270.617763,24.328781 C271.029536,25.0474769 271.585152,25.6965742 272.284926,26.2753387 C272.984439,26.8543654 273.842811,27.3410835 274.860043,27.7354405 C275.877326,28.1297976 276.946485,28.3519676 278.067937,28.4016884 C278.484819,28.9410643 278.956027,29.4150375 279.481978,29.8241325 C279.859185,30.163524 280.119501,30.5251534 280.26345,30.9100174 C280.407242,31.2940946 280.47919,31.7408472 280.47919,32.2500656 C280.47919,32.7892317 280.327994,33.2433271 280.025187,33.6123517 C279.722692,33.9821106 279.238867,34.166623 278.574025,34.166623 C277.829675,34.166623 277.167387,34.393828 276.586797,34.8479234 C276.006311,35.3023859 275.716016,35.8738601 275.716016,36.5627131 L275.716016,37.5208344 C275.716016,37.6608183 275.760593,37.7756796 275.849902,37.8654183 C275.939264,37.9551569 276.053286,38 276.192282,38 L288.576949,38 C288.716153,38 288.829967,37.9551569 288.919537,37.8654183 C289.008377,37.7756796 289.053006,37.6608183 289.053006,37.5208344 L289.053006,36.5627131 C289.053006,35.8738077 288.762919,35.3025433 288.181964,34.8479234 C287.601375,34.393828 286.939087,34.166623 286.194737,34.166623 C285.530103,34.166623 285.04607,33.9820582 284.743836,33.6123517 C284.441236,33.2433271 284.290302,32.7892842 284.290302,32.2500656 C284.290302,31.7406374 284.362041,31.2940946 284.505833,30.9100174 C284.650042,30.5251534 284.910515,30.1637338 285.287304,29.8241325 C285.813308,29.4148802 286.284672,28.9406447 286.701085,28.4016884 C287.823006,28.3519676 288.891905,28.1297451 289.909397,27.7354405 C290.926211,27.3410835 291.784948,26.8543654 292.484357,26.2753387 C293.184131,25.6963644 293.739747,25.0474769 294.15152,24.328781 C294.563292,23.6099277 294.769231,22.8961619 294.769231,22.1874312 L294.769231,20.2707689 C294.769022,19.871639 294.630027,19.5320902 294.352192,19.2523847 L294.352192,19.2523847 Z M273.311959,24.613102 C272.374183,23.7746147 271.905374,22.9659703 271.905374,22.1872738 L271.905374,20.7497771 L275.715964,20.7497771 C275.715964,22.8363711 276.083004,24.6881027 276.817396,26.3052865 C275.41837,26.0158781 274.249839,25.4515893 273.311959,24.613102 L273.311959,24.613102 Z M292.863649,22.1874312 C292.863649,22.9661277 292.395152,23.7749818 291.457376,24.6134167 C290.519235,25.451904 289.350756,26.0160354 287.951783,26.3054439 C288.686175,24.6883125 289.053162,22.8365285 289.053162,20.7499344 L292.863649,20.7499344 L292.863649,22.1874312 L292.863649,22.1874312 Z" id="path-1"></path>
        <filter x="-50%" y="-50%" width="200%" height="200%" filterUnits="objectBoundingBox" id="filter-2">
            <feOffset dx="0" dy="2" in="SourceAlpha" result="shadowOffsetOuter1"></feOffset>
            <feGaussianBlur stdDeviation="0.5" in="shadowOffsetOuter1" result="shadowBlurOuter1"></feGaussianBlur>
            <feColorMatrix values="0 0 0 0 0.161378614   0 0 0 0 0.0245576152   0 0 0 0 0  0 0 0 0.655598958 0" type="matrix" in="shadowBlurOuter1"></feColorMatrix>
        </filter>
    </defs>
    <g id="Page-1" stroke="none" stroke-width="1" fill="none" fill-rule="evenodd">
        <g id="1.0" transform="translate(-269.000000, -15.000000)">
            <g id="Finished">
                <use fill="black" fill-opacity="1" filter="url(#filter-2)" xlink:href="#path-1"></use>
                <use fill="#FFEAC8" fill-rule="evenodd" xlink:href="#path-1"></use>
            </g>
        </g>
    </g>
</svg>