<?xml version="1.0" encoding="UTF-8" standalone="no"?>
<svg width="27px" height="25px" viewBox="0 0 27 25" version="1.1" xmlns="http://www.w3.org/2000/svg" xmlns:xlink="http://www.w3.org/1999/xlink">
    <!-- Generator: Sketch 3.8.3 (29802) - http://www.bohemiancoding.com/sketch -->
    <title>Combined Shape Copy</title>
    <desc>Created with Sketch.</desc>
    <defs>
        <path d="M38.7913076,16 C39.7549975,16 40.5362224,16.7713707 40.5362224,17.7378505 C40.5362224,18.6976388 39.7613775,19.475701 38.7913076,19.475701 L17.7449148,19.475701 C16.7812249,19.475701 16,18.7043303 16,17.7378505 C16,16.7780622 16.7748449,16 17.7449148,16 L38.7913076,16 Z M38.7913076,25.2463132 C39.7549975,25.2463132 40.5362224,26.0176839 40.5362224,26.9841637 C40.5362224,27.943952 39.7613775,28.7220142 38.7913076,28.7220142 L17.7449148,28.7220142 C16.7812249,28.7220142 16,27.9506435 16,26.9841637 C16,26.0243754 16.7748449,25.2463132 17.7449148,25.2463132 L38.7913076,25.2463132 Z M38.7913076,34.4926264 C39.7549975,34.4926264 40.5362224,35.2639971 40.5362224,36.2304769 C40.5362224,37.1902653 39.7613775,37.9683274 38.7913076,37.9683274 L17.7449148,37.9683274 C16.7812249,37.9683274 16,37.1969567 16,36.2304769 C16,35.2706886 16.7748449,34.4926264 17.7449148,34.4926264 L38.7913076,34.4926264 Z" id="path-1"></path>
        <filter x="-50%" y="-50%" width="200%" height="200%" filterUnits="objectBoundingBox" id="filter-2">
            <feOffset dx="0" dy="2" in="SourceAlpha" result="shadowOffsetOuter1"></feOffset>
            <feGaussianBlur stdDeviation="0.5" in="shadowOffsetOuter1" result="shadowBlurOuter1"></feGaussianBlur>
            <feColorMatrix values="0 0 0 0 0.161378614   0 0 0 0 0.0245576152   0 0 0 0 0  0 0 0 0.655598958 0" type="matrix" in="shadowBlurOuter1"></feColorMatrix>
        </filter>
    </defs>
    <g id="Page-1" stroke="none" stroke-width="1" fill="none" fill-rule="evenodd">
        <g id="6.0-" transform="translate(-15.000000, -16.000000)">
            <g id="Combined-Shape-Copy">
                <use fill="black" fill-opacity="1" filter="url(#filter-2)" xlink:href="#path-1"></use>
                <use fill="#FFEAC8" fill-rule="evenodd" xlink:href="#path-1"></use>
            </g>
        </g>
    </g>
</svg>