<?xml version="1.0" encoding="UTF-8" standalone="no"?>
<svg width="35px" height="38px" viewBox="0 0 35 38" version="1.1" xmlns="http://www.w3.org/2000/svg" xmlns:xlink="http://www.w3.org/1999/xlink">
    <!-- Generator: Sketch 3.8.3 (29802) - http://www.bohemiancoding.com/sketch -->
    <title>music_off</title>
    <desc>Created with Sketch.</desc>
    <defs></defs>
    <g id="Page-1" stroke="none" stroke-width="1" fill="none" fill-rule="evenodd">
        <g id="2.0--" transform="translate(-51.000000, -247.000000)">
            <g id="music_off" transform="translate(43.000000, 242.000000)">
                <g id="Page-1">
                    <g>
                        <g id="Artboard-21">
                            <g id="Group-13">
                                <rect id="Rectangle-177-Copy-179" x="0" y="0" width="50" height="50"></rect>
                                <g id="Group-Copy" transform="translate(8.750000, 5.000000)" fill="#FFEDD0">
                                    <path d="M9.06948607,25.697082 L9.06948607,18.4801069 L9.06948622,11.2484062 C9.06948625,9.85741738 10.1301542,8.37659985 11.4385545,7.92817913 L13.9802346,7.05708328 L25.7494113,3.35676673 C26.4460565,3.15236885 27.0875768,3.2086083 27.5970718,3.46915723 L19.1082229,13.6534035 L12.88394,15.6583859 C12.88394,15.6583859 11.4926124,16.1683172 11.4926124,17.3577352 L11.4926124,22.7900076 L9.06948607,25.697082 L9.06948607,25.697082 Z M8.61480015,26.242578 C8.12465438,26.0718825 7.22737433,25.8885258 5.8706638,26.086039 C2.62874733,26.5592755 0,29.1165243 0,31.7990415 C0,33.0501793 0.57183936,34.0753343 1.51102084,34.7651278 L8.61480015,26.242578 L8.61480015,26.242578 Z M26.3170235,12.8139917 L26.3170235,22.7354231 C26.3170235,22.7430151 25.084529,22.0141802 22.8768737,22.290024 C19.6349572,22.6936669 17.0062099,25.1977715 17.0062099,27.8790233 C17.0062099,30.562806 19.6349572,32.26089 22.8768737,31.8559818 C26.1212528,31.4523388 28.75,28.9494995 28.75,26.265717 L28.75,9.89509988 L26.3170235,12.8139917 L26.3170235,12.8139917 Z M31.7798065,0.443574603 C32.2249975,-0.0869833155 33.0300745,-0.144375388 33.5434515,0.286399023 C34.0722947,0.730151265 34.1490903,1.50928165 33.6949175,2.05054363 L3.97120062,37.47389 C3.52600967,38.004448 2.7209325,38.06184 2.20755555,37.6310655 C1.67871222,37.1873135 1.6019168,36.408183 2.05608953,35.866921 L31.7798065,0.443574603 L31.7798065,0.443574603 Z" id="Combined-Shape"></path>
                                </g>
                            </g>
                        </g>
                    </g>
                </g>
            </g>
        </g>
    </g>
</svg>