<?xml version="1.0" encoding="UTF-8" standalone="no"?>
<svg width="30px" height="32px" viewBox="0 0 30 32" version="1.1" xmlns="http://www.w3.org/2000/svg" xmlns:xlink="http://www.w3.org/1999/xlink">
    <!-- Generator: Sketch 3.8.3 (29802) - http://www.bohemiancoding.com/sketch -->
    <title>music_on</title>
    <desc>Created with Sketch.</desc>
    <defs></defs>
    <g id="Page-1" stroke="none" stroke-width="1" fill="none" fill-rule="evenodd">
        <g id="music_on" transform="translate(-8.000000, -8.000000)">
            <g id="music_off">
                <g id="Page-1">
                    <g id="Artboard-21">
                        <g id="Group-13">
                            <rect id="Rectangle-177-Copy-179" x="0" y="0" width="50" height="50"></rect>
                            <g id="Group-Copy" transform="translate(8.750000, 8.000000)" fill="#FFEDD0">
                                <path d="M11.4895004,4.62302976 C10.1752727,5.06455171 9.10988058,6.52258745 9.10988055,7.89217639 L9.1098804,15.0126202 L9.1098804,22.6597636 L9.1098804,22.8615947 C9.1098804,22.8615947 8.11429885,22.1850864 5.89681098,22.5015378 C2.64045543,22.9674938 7.28306304e-14,25.4854002 7.28306304e-14,28.126648 C7.28306304e-14,30.7678957 2.64045543,32.3862829 5.89681098,31.920327 C9.15564006,31.4568626 11.543799,29.0162002 11.543799,26.3737067 L11.543799,13.9075158 C11.543799,12.7363965 12.9413235,12.2343102 12.9413235,12.2343102 L25.0898919,8.39827165 C25.0898919,8.39827165 26.4342361,7.94352854 26.4342361,9.19687534 L26.4342361,19.2024699 C26.4342361,19.2099452 25.1962523,18.4923231 22.9787643,18.7639231 C19.7224088,19.1613562 17.0819533,21.626936 17.0819533,24.266938 C17.0819533,26.9094315 19.7224088,28.5813911 22.9787643,28.1827122 C26.2375935,27.7852791 28.8780488,25.3209451 28.8780488,22.6784516 L28.8780488,2.29225507 C28.8780488,0.615311937 27.5275209,-0.356467877 25.8640958,0.121946793 L14.0425008,3.76533539 L11.4895004,4.62302976 Z" id="music"></path>
                            </g>
                        </g>
                    </g>
                </g>
            </g>
        </g>
    </g>
</svg>