<?xml version="1.0" encoding="UTF-8" standalone="no"?>
<svg width="33px" height="30px" viewBox="0 0 33 30" version="1.1" xmlns="http://www.w3.org/2000/svg" xmlns:xlink="http://www.w3.org/1999/xlink">
    <!-- Generator: Sketch 46.2 (44496) - http://www.bohemiancoding.com/sketch -->
    <title>Group 3</title>
    <desc>Created with Sketch.</desc>
    <defs></defs>
    <g id="UI" stroke="none" stroke-width="1" fill="none" fill-rule="evenodd">
        <g id="0-board" transform="translate(-17.000000, -12.000000)">
            <g id="Group-3" transform="translate(17.000000, 12.000000)">
                <g id="ic/profile">
                    <path d="M26,14 L7,14 L7,20.6490917 C7,25.3261311 11.7226388,28.9370639 16.5130078,28.9993815 C21.2056428,29.0604277 26,25.361529 26,20.6490917 L26,14 Z" id="Rectangle-4" stroke="#FFEAC8" stroke-width="2"></path>
                    <path d="M6.90905526,6 L6,6 L6,6.35834129 L6.90905526,6 Z M26.0909447,6 L27,6 L27,6.35834129 L26.0909447,6 Z M27,10.9021447 L27,16.045721 C23.5,17.3485737 20,18 16.5,18 C13,18 9.5,17.3485737 6,16.045721 L6,10.9021447 L16.133273,14.8965884 C16.3689335,14.9894836 16.6310665,14.9894836 16.866727,14.8965884 L27,10.9021447 Z" id="Combined-Shape" fill="#FFEAC8"></path>
                    <path d="M16.8665245,0.144388447 L31.819097,6.0347958 L31.819097,6.0347958 C32.0760222,6.13600875 32.2022519,6.42633708 32.101039,6.68326226 C32.0502174,6.81227098 31.9481058,6.91438258 31.819097,6.9652042 L16.8665245,12.8556116 L16.8665245,12.8556116 C16.6309837,12.9484004 16.3690163,12.9484004 16.1334755,12.8556116 L1.18090296,6.9652042 L1.18090296,6.9652042 C0.923977777,6.86399125 0.797748072,6.57366292 0.898961023,6.31673774 C0.949782638,6.18772902 1.05189424,6.08561742 1.18090296,6.0347958 L16.1334755,0.144388447 L16.1334755,0.144388447 C16.3690163,0.0515996371 16.6309837,0.0515996371 16.8665245,0.144388447 Z" id="Rectangle-8" fill="#FFEAC8"></path>
                </g>
                <path d="M31.9573753,18.6246127 L31.9573753,6.62461268 L29.9573753,6.62461268 L29.9573753,18.6246127 L28.9573753,21.6246127 L32.9573753,21.6246127 L31.9573753,18.6246127 Z" id="Combined-Shape" fill="#FFEAC8"></path>
            </g>
        </g>
    </g>
</svg>