<?xml version="1.0" encoding="UTF-8" standalone="no"?>
<svg width="16px" height="16px" viewBox="0 0 16 16" version="1.1" xmlns="http://www.w3.org/2000/svg" xmlns:xlink="http://www.w3.org/1999/xlink">
    <!-- Generator: Sketch 3.8.3 (29802) - http://www.bohemiancoding.com/sketch -->
    <title>restore-purchases </title>
    <desc>Created with Sketch.</desc>
    <defs></defs>
    <g id="Page-1" stroke="none" stroke-width="1" fill="none" fill-rule="evenodd">
        <g id="10.0" transform="translate(-91.000000, -504.000000)">
            <g id="restore-purchases-" transform="translate(86.000000, 499.000000)">
                <g id="restore-purchases">
                    <g id="Page-1">
                        <g id="Artboard-21">
                            <g id="Group-8">
                                <rect id="Rectangle-170-Copy-173" x="0" y="0" width="26" height="26"></rect>
                                <g id="Group-2" transform="translate(4.333333, 5.200000)">
                                    <path d="M3.92761254,1.48658347 C4.31129694,1.19740004 4.65586335,1.346206 4.69774194,1.82488053 L4.97421759,4.98501167 C5.01586393,5.46103141 4.69828734,5.66786461 4.27453286,5.45190074 L1.70391104,4.14179915 C1.2758395,3.92363512 1.24372601,3.50943235 1.62354099,3.2231653 L3.92761254,1.48658347 L3.92761254,1.48658347 Z" id="Shape" fill="#7C3B24" transform="translate(3.168595, 3.438313) rotate(-40.000000) translate(-3.168595, -3.438313) "></path>
                                    <path d="M3.08460511,3.68906556 C4.34708843,1.9771558 6.37800888,0.866666667 8.66829799,0.866666667 C12.4974723,0.866666667 15.6016313,3.97082573 15.6016313,7.8 C15.6016313,11.6291743 12.4974723,14.7333333 8.66829799,14.7333333 C5.4449768,14.7333333 2.73539638,12.5337477 1.95866666,9.55368657 L1.95866666,9.55368657" id="Shape" stroke="#7C3B24" stroke-width="1.5"></path>
                                </g>
                            </g>
                        </g>
                    </g>
                </g>
            </g>
        </g>
    </g>
</svg>