<?xml version="1.0" encoding="UTF-8" standalone="no"?>
<svg width="27px" height="27px" viewBox="0 0 27 27" version="1.1" xmlns="http://www.w3.org/2000/svg" xmlns:xlink="http://www.w3.org/1999/xlink">
    <!-- Generator: Sketch 3.8.3 (29802) - http://www.bohemiancoding.com/sketch -->
    <title>settings </title>
    <desc>Created with Sketch.</desc>
    <defs>
        <path d="M340.198261,20.8069521 C339.620615,20.0437382 338.937493,19.3647789 338.170832,18.7917989 C338.431394,17.3924713 338.534719,16.5173632 338.534719,16.5173632 C338.545966,16.4290702 338.504281,16.3180407 338.412263,16.2519104 C338.412263,16.2519104 338.082113,15.9628807 336.996729,15.5021623 C335.911344,15.0414439 335.474093,15.0047312 335.474093,15.0047312 C335.377353,14.9884985 335.253428,15.0317002 335.198076,15.101042 C335.198076,15.101042 334.646134,15.7761959 333.827612,16.9247164 C333.271109,16.8297312 332.699301,16.7802584 332.116186,16.7802584 C331.532779,16.7802584 330.960892,16.8295887 330.404466,16.9243044 C329.586106,15.7760344 329.034296,15.101042 329.034296,15.101042 C328.978596,15.0316184 328.869771,14.9844768 328.758279,15.0047312 C328.758279,15.0047312 328.321028,15.0414439 327.235643,15.5021623 C326.150259,15.9628807 325.820109,16.2519104 325.820109,16.2519104 C325.741232,16.310223 325.686223,16.4293777 325.697653,16.5173632 C325.697653,16.5173632 325.800831,17.3912265 326.060984,18.7888128 C325.151269,19.4682539 324.359531,20.2969457 323.722058,21.2385717 C322.302593,21.0246391 321.415931,20.9512155 321.415931,20.9512155 C321.327299,20.943057 321.217792,20.9885919 321.154914,21.082862 C321.154914,21.082862 320.877582,21.4228972 320.455024,22.5236995 C320.032465,23.6245017 320.011035,24.0627681 320.011035,24.0627681 C319.998188,24.1600155 320.045688,24.2823575 320.11692,24.3352553 C320.11692,24.3352553 320.839321,24.8849043 322.05938,25.6888111 C322.01125,26.0892227 321.986483,26.4968135 321.986483,26.9101794 L321.986483,27.0898213 C321.986483,27.6863391 322.038172,28.2708144 322.137295,28.8390336 C320.963709,29.7038759 320.272826,30.2890864 320.272826,30.2890864 C320.204385,30.3459896 320.15915,30.4556209 320.181347,30.5667417 C320.181347,30.5667417 320.225686,31.0032859 320.705276,32.0804646 C321.184867,33.1576433 321.479615,33.482698 321.479615,33.482698 C321.539295,33.5605461 321.659392,33.6134673 321.747164,33.6005036 C321.747164,33.6005036 322.628358,33.4808319 324.034111,33.1930487 C324.611757,33.9562625 325.294879,34.6352218 326.06154,35.2082018 C325.800978,36.6075289 325.697653,37.4826367 325.697653,37.4826367 C325.686406,37.5709295 325.728092,37.6819593 325.82011,37.7480895 C325.82011,37.7480895 326.150259,38.0371198 327.235643,38.4978383 C328.321028,38.9585567 328.75828,38.9952688 328.75828,38.9952688 C328.85502,39.0115014 328.978945,38.9682997 329.034296,38.8989578 C329.034296,38.8989578 329.586238,38.2238043 330.40476,37.0752842 C330.961263,37.1702693 331.533071,37.2197422 332.116186,37.2197422 C332.699593,37.2197422 333.27148,37.1704119 333.827906,37.0756962 C334.646266,38.2239657 335.198076,38.8989578 335.198076,38.8989578 C335.253776,38.9683815 335.362601,39.0155232 335.474092,38.9952688 C335.474092,38.9952688 335.911344,38.9585567 336.996729,38.4978383 C338.082113,38.0371198 338.412262,37.7480895 338.412262,37.7480895 C338.49114,37.6897769 338.546149,37.5706222 338.534719,37.4826367 C338.534719,37.4826367 338.431541,36.6087737 338.171388,35.2111879 C339.081103,34.5317467 339.872841,33.7030549 340.510314,32.7614288 C341.929779,32.9753613 342.81644,33.0487847 342.81644,33.0487847 C342.905072,33.0569433 343.014579,33.0114083 343.077458,32.9171384 C343.077458,32.9171384 343.35479,32.5771033 343.777348,31.4763011 C344.199907,30.3754988 344.221337,29.9372323 344.221337,29.9372323 C344.234183,29.8399849 344.186683,29.7176429 344.115451,29.664745 C344.115451,29.664745 343.393051,29.1150962 342.172992,28.3111897 C342.221122,27.9107778 342.245889,27.5031871 342.245889,27.0898213 L342.245889,26.9101794 C342.245889,26.3136614 342.1942,25.7291861 342.095077,25.1609669 C343.268663,24.2961247 343.959545,23.7109145 343.959545,23.7109145 C344.027986,23.6540114 344.073221,23.5443801 344.051024,23.4332591 C344.051024,23.4332591 344.006686,22.9967147 343.527096,21.919536 C343.047505,20.8423574 342.752757,20.5173029 342.752757,20.5173029 C342.693076,20.4394547 342.57298,20.3865336 342.485207,20.3994974 C342.485207,20.3994974 341.604013,20.5191689 340.198261,20.8069521 L340.198261,20.8069521 Z M332.116186,21.6468022 C329.185744,21.6468022 326.810151,24.0228985 326.810151,26.9372688 L326.810151,27.0627317 C326.810151,29.9845758 329.191707,32.3531984 332.116186,32.3531984 C335.046628,32.3531984 337.422221,29.9771021 337.422221,27.0627317 L337.422221,26.9372688 C337.422221,24.0154247 335.040665,21.6468022 332.116186,21.6468022 L332.116186,21.6468022 Z" id="path-1"></path>
        <filter x="-50%" y="-50%" width="200%" height="200%" filterUnits="objectBoundingBox" id="filter-2">
            <feOffset dx="0" dy="2" in="SourceAlpha" result="shadowOffsetOuter1"></feOffset>
            <feGaussianBlur stdDeviation="0.5" in="shadowOffsetOuter1" result="shadowBlurOuter1"></feGaussianBlur>
            <feColorMatrix values="0 0 0 0 0.161378614   0 0 0 0 0.0245576152   0 0 0 0 0  0 0 0 0.655598958 0" type="matrix" in="shadowBlurOuter1"></feColorMatrix>
        </filter>
    </defs>
    <g id="Page-1" stroke="none" stroke-width="1" fill="none" fill-rule="evenodd">
        <g id="1.0" transform="translate(-319.000000, -15.000000)">
            <g id="settings-">
                <use fill="black" fill-opacity="1" filter="url(#filter-2)" xlink:href="#path-1"></use>
                <use fill="#FFEAC8" fill-rule="evenodd" xlink:href="#path-1"></use>
            </g>
        </g>
    </g>
</svg>