<?xml version="1.0" encoding="UTF-8" standalone="no"?>
<svg width="30px" height="24px" viewBox="0 0 30 24" version="1.1" xmlns="http://www.w3.org/2000/svg" xmlns:xlink="http://www.w3.org/1999/xlink">
    <!-- Generator: Sketch 3.8.3 (29802) - http://www.bohemiancoding.com/sketch -->
    <title>basket</title>
    <desc>Created with Sketch.</desc>
    <defs>
        <filter x="-50%" y="-50%" width="200%" height="200%" filterUnits="objectBoundingBox" id="filter-1">
            <feOffset dx="0" dy="2" in="SourceAlpha" result="shadowOffsetOuter1"></feOffset>
            <feGaussianBlur stdDeviation="0.5" in="shadowOffsetOuter1" result="shadowBlurOuter1"></feGaussianBlur>
            <feColorMatrix values="0 0 0 0 0.161378614   0 0 0 0 0.0245576152   0 0 0 0 0  0 0 0 0.655598958 0" type="matrix" in="shadowBlurOuter1" result="shadowMatrixOuter1"></feColorMatrix>
            <feMerge>
                <feMergeNode in="shadowMatrixOuter1"></feMergeNode>
                <feMergeNode in="SourceGraphic"></feMergeNode>
            </feMerge>
        </filter>
    </defs>
    <g id="Page-1" stroke="none" stroke-width="1" fill="none" fill-rule="evenodd">
        <g id="1.0" transform="translate(-15.000000, -16.000000)">
            <g id="basket" filter="url(#filter-1)" transform="translate(16.000000, 16.000000)">
                <polyline id="Path-64" stroke="#FFEAC8" stroke-width="1.5" stroke-linecap="round" stroke-linejoin="round" points="0.875 0.876811594 4.375 0.876811594 9.625 14.9057971 23.625 14.9057971 27.125 4.38405797 6.70833333 4.38405797"></polyline>
                <path d="M15.75,4.6763285 L17.5,4.6763285 L17.5,14.6135266 L15.75,14.6135266 L15.75,4.6763285 Z M10.4982174,4.98052739 L12.2216309,4.67664308 L13.9472073,14.4628728 L12.2237937,14.7667571 L10.4982174,4.98052739 Z M20.9737937,4.67664308 L22.6972073,4.98052739 L20.9716309,14.7667571 L19.2482174,14.4628728 L20.9737937,4.67664308 Z" id="Path-130-Copy" fill="#FFEAC8"></path>
                <path d="M26.25,7.89130435 L7,7.89130435" id="Path-64-Copy" stroke="#FFEAC8" stroke-width="1.5" stroke-linejoin="round"></path>
                <path d="M23.625,11.3985507 L8.75,11.3985507" id="Path-64-Copy-2" stroke="#FFEAC8" stroke-width="1.5" stroke-linecap="square" stroke-linejoin="round"></path>
                <path d="M21.7062875,21.0434783 C22.170307,21.004839 22.5956583,20.7987779 22.9050046,20.4381143 C23.214351,20.0903607 23.3561499,19.6395538 23.3303559,19.1630177 C23.2658935,18.2099001 22.4281108,17.4757536 21.4614034,17.5401676 C20.4946961,17.6045816 19.7728727,18.4546459 19.8373351,19.4077181 C19.9017519,20.3221964 20.6622435,21.0434783 21.5774083,21.0434783 L21.7062875,21.0434783 Z" id="Shape" fill="#FFEAC8"></path>
                <path d="M12.8333333,19.2898551 C12.8333333,18.3227751 12.0484152,17.5362319 11.0833333,17.5362319 C10.1182515,17.5362319 9.33333333,18.3227296 9.33333333,19.2898096 C9.33333333,20.2568895 10.1182515,21.0434783 11.0833333,21.0434783 C12.0484152,21.0434783 12.8333333,20.256935 12.8333333,19.2898551 Z" id="Shape" fill="#FFEAC8"></path>
            </g>
        </g>
    </g>
</svg>