<?xml version="1.0" encoding="UTF-8" standalone="no"?>
<svg width="37px" height="39px" viewBox="0 0 37 39" version="1.1" xmlns="http://www.w3.org/2000/svg" xmlns:xlink="http://www.w3.org/1999/xlink">
    <!-- Generator: Sketch 3.8.3 (29802) - http://www.bohemiancoding.com/sketch -->
    <title>sound_off</title>
    <desc>Created with Sketch.</desc>
    <defs></defs>
    <g id="Page-1" stroke="none" stroke-width="1" fill="none" fill-rule="evenodd">
        <g id="sound_off" transform="translate(-7.000000, -5.000000)">
            <g id="Page-1">
                <g>
                    <g id="Artboard-21">
                        <g id="Group-11">
                            <rect id="Rectangle-177-Copy" x="0" y="0" width="50" height="50"></rect>
                            <g id="Group-3-Copy" transform="translate(7.500000, 5.000000)" fill="#FFEAC8">
                                <path d="M31.9493647,6.76899097 C34.2310375,10.2017634 35.746307,15.2715352 35.746307,19.9980307 C35.746307,24.9980307 34.0771482,30.260052 31.7459107,33.523907 C31.4351185,33.9590325 31.213643,34.2287517 31.0600155,34.395701 C30.839027,34.7483912 30.4469015,34.9829165 30,34.9829165 C29.309644,34.9829165 28.75,34.4232722 28.75,33.7329165 C28.75,33.6721175 28.7543408,33.6123325 28.762729,33.5538545 C28.7837625,33.368919 28.8493508,33.1883932 28.9613598,33.0333177 C28.9613598,33.0333177 29.2821963,32.5966767 29.720459,31.9677867 C31.3742067,29.594723 33.2235717,24.9980302 33.2500005,19.9980307 C33.2260935,15.475112 31.7384977,11.4719788 30.2054377,8.82803702 L31.9493647,6.76899097 L31.9493647,6.76899097 Z M27.2348698,12.3353725 C28.4604187,14.5275769 29.309208,17.1711509 29.339752,19.8935367 C29.3044313,23.4273617 28.4697917,26.227784 26.6339042,28.7023992 C26.258016,29.2090632 26.1307827,29.351876 26.1307827,29.351876 C26.0787697,29.4167727 26.0226903,29.4760347 25.9632572,29.5296092 C25.7339785,29.8065115 25.38759,29.9829165 25,29.9829165 C24.3096441,29.9829165 23.75,29.4232722 23.75,28.7329165 C23.75,28.3338757 23.9369822,27.978507 24.2281103,27.7496467 C24.3588226,27.5870355 24.5826994,27.3143105 24.9246216,26.91529 C26.5049847,25.0710175 26.785692,22.8719752 26.8027638,19.8935366 C26.789628,17.9825829 26.2698155,16.0577693 25.4936203,14.3912575 L27.2348698,12.3353725 L27.2348698,12.3353725 Z M7.8738635,27.458557 L1.59294118,27.458557 C0.712941177,27.458557 0,26.7040095 0,25.7726535 L0,14.1931792 C0,13.2618234 0.712941177,12.5072757 1.59294118,12.5072757 L9.4117647,12.5072757 L18.257647,5.2257664 C18.9670588,4.6418013 20,5.1772064 20,6.12723917 L20,13.1412856 L7.8738635,27.458557 L7.8738635,27.458557 Z M12.3663159,29.890603 L18.257647,34.7400665 C18.9670588,35.3240315 20,34.7886265 20,33.8385937 L20,20.8775487 L12.3663159,29.890603 L12.3663159,29.890603 Z M31.7798065,0.94357651 C32.2249975,0.413018592 33.0300745,0.35562652 33.5434515,0.78640093 C34.0722947,1.23015317 34.1490902,2.00928355 33.6949175,2.55054552 L3.97120062,37.973892 C3.52600967,38.5044497 2.7209325,38.561842 2.20755555,38.1310675 C1.67871222,37.6873152 1.6019168,36.908185 2.05608953,36.366923 L31.7798065,0.94357651 L31.7798065,0.94357651 Z" id="Combined-Shape"></path>
                            </g>
                        </g>
                    </g>
                </g>
            </g>
        </g>
    </g>
</svg>