<?xml version="1.0" encoding="UTF-8" standalone="no"?>
<svg width="37px" height="30px" viewBox="0 0 37 30" version="1.1" xmlns="http://www.w3.org/2000/svg" xmlns:xlink="http://www.w3.org/1999/xlink">
    <!-- Generator: Sketch 3.8.3 (29802) - http://www.bohemiancoding.com/sketch -->
    <title>sound_on</title>
    <desc>Created with Sketch.</desc>
    <defs></defs>
    <g id="Page-1" stroke="none" stroke-width="1" fill="none" fill-rule="evenodd">
        <g id="2.0--" transform="translate(-50.000000, -183.000000)">
            <g id="sound_on" transform="translate(43.000000, 173.000000)">
                <g id="Page-1">
                    <g>
                        <g id="Artboard-21">
                            <g id="Group-10">
                                <rect id="Rectangle-177" x="0" y="0" width="50" height="50"></rect>
                                <g id="Group-3" transform="translate(7.500000, 10.000000)" fill="#FFEAC8">
                                    <path d="M31.0391298,0.554992325 C31.1524503,0.6866366 31.3144437,0.890847425 31.5457153,1.20697785 C34.0505977,4.63096032 35.746307,10.0151143 35.746307,15.0151143 C35.746307,20.0151142 34.0771482,25.2771357 31.7459107,28.5409907 C31.4351185,28.976116 31.213643,29.2458352 31.0600155,29.4127845 C30.839027,29.7654747 30.4469015,30 30,30 C29.309644,30 28.75,29.440356 28.75,28.75 C28.75,28.6892012 28.7543407,28.6294162 28.762729,28.570938 C28.7837625,28.3860025 28.8493507,28.205477 28.9613597,28.0504012 C28.9613597,28.0504012 29.2821963,27.6137602 29.720459,26.9848702 C31.3742067,24.6118065 33.2235717,20.0151137 33.2500005,15.0151143 C33.2235717,10.0151138 31.4083862,5.65033697 29.720459,3.05481727 C29.2354755,2.30906007 28.9694205,1.9935298 28.9694205,1.9935298 C28.8214905,1.79969585 28.749064,1.5629403 28.7521792,1.32442902 C28.7507332,1.29980415 28.75,1.2749877 28.75,1.25 C28.75,0.559644075 29.309644,0 30,0 C30.4331482,0 30.8148397,0.220312325 31.0391298,0.554992325 L31.0391298,0.554992325 Z M25.9691115,5.46043045 C26.0193095,5.50959955 26.0668568,5.56322678 26.1112773,5.62127162 C26.1112773,5.62127162 26.2818218,5.7983733 26.6339043,6.35845353 C28.1749125,8.71970568 29.3044313,11.7624675 29.339752,14.9106203 C29.3044313,18.4444453 28.4697918,21.2448678 26.6339043,23.719483 C26.258016,24.226147 26.1307828,24.3689598 26.1307828,24.3689598 C26.0787698,24.4338563 26.0226903,24.4931185 25.9632573,24.5466928 C25.7339785,24.823595 25.38759,25 25,25 C24.3096441,25 23.75,24.440356 23.75,23.75 C23.75,23.3509593 23.9369822,22.9955905 24.2281103,22.7667303 C24.3588226,22.604119 24.5826994,22.3313943 24.9246216,21.9323735 C26.5049848,20.088101 26.785692,17.8890588 26.8027638,14.9106202 C26.785692,12.427084 25.9128218,9.92013787 24.7335815,7.98721318 C24.2727007,7.3222093 24.0813004,7.1010375 24.0813004,7.1010375 C24.0759162,7.0941005 24.0706146,7.08711728 24.0653955,7.08008923 C23.8691833,6.8593326 23.75,6.56858468 23.75,6.25 C23.75,5.55964408 24.3096441,5 25,5 C25.3909033,5 25.7398978,5.17943393 25.9691115,5.46043045 L25.9691115,5.46043045 Z M9.4117647,7.52435932 L1.59294118,7.52435932 C0.712941177,7.52435932 0,8.27890697 0,9.21026282 L0,20.7897372 C0,21.721093 0.712941177,22.4756407 1.59294118,22.4756407 L9.4117647,22.4756407 L18.257647,29.75715 C18.9670588,30.341115 20,29.80571 20,28.8556772 L20,1.14432275 C20,0.19429 18.9670588,-0.3411151 18.257647,0.24285 L9.4117647,7.52435932 L9.4117647,7.52435932 Z" id="Rectangle-950-Copy"></path>
                                </g>
                            </g>
                        </g>
                    </g>
                </g>
            </g>
        </g>
    </g>
</svg>